<?xml version="1.0" encoding="UTF-8"?>
<svg width="32" height="32" viewBox="0 0 32 32" fill="none" xmlns="http://www.w3.org/2000/svg">
  <!-- Background circle -->
  <circle cx="16" cy="16" r="15" fill="#1B3B5A"/>
  
  <!-- Game element (fruit) -->
  <path d="M16 8C11.5817 8 8 11.5817 8 16C8 20.4183 11.5817 24 16 24C20.4183 24 24 20.4183 24 16C24 11.5817 20.4183 8 16 8Z" fill="#4A90E2"/>
  <path d="M16 12C13.7909 12 12 13.7909 12 16C12 18.2091 13.7909 20 16 20C18.2091 20 20 18.2091 20 16C20 13.7909 18.2091 12 16 12Z" fill="#FFFFFF"/>
  
  <!-- Weather element (sun rays) -->
  <path d="M16 4L16 8M16 24L16 28M28 16L24 16M8 16L4 16M23.0711 8.92893L20.2426 11.7574M11.7574 20.2426L8.92893 23.0711M23.0711 23.0711L20.2426 20.2426M11.7574 11.7574L8.92893 8.92893" stroke="#FFFFFF" stroke-width="1.5" stroke-linecap="round"/>
  
  <!-- Notes element (lines) -->
  <path d="M12 14H20M12 16H20M12 18H20" stroke="#FFFFFF" stroke-width="1.5" stroke-linecap="round"/>
</svg> 